<?xml version="1.0" encoding="UTF-8"?>
<svg version="1.1" xmlns="http://www.w3.org/2000/svg" width="326" height="360">
<path d="M0 0 C107.58 0 215.16 0 326 0 C326 118.8 326 237.6 326 360 C218.42 360 110.84 360 0 360 C0 241.2 0 122.4 0 0 Z " fill="#FBF8F0" transform="translate(0,0)"/>
<path d="M0 0 C0.8664917 0.48500977 1.7329834 0.97001953 2.62573242 1.46972656 C9.35802137 5.32396041 15.35744518 9.51872864 21 14.875 C21.5451123 15.38063477 22.09022461 15.88626953 22.65185547 16.40722656 C27.02557497 20.58727144 30.37745338 24.95328216 33.5 30.125 C33.96921875 30.89859863 34.4384375 31.67219727 34.921875 32.46923828 C39.82763407 40.85047158 43.09630186 49.63834935 46 58.875 C46.52207031 60.45667969 46.52207031 60.45667969 47.0546875 62.0703125 C48.8346068 68.15594134 49.14807827 73.89976479 49.3125 80.1875 C49.57995632 89.53644025 51.95633431 96.4633646 56 104.875 C56.75463819 106.53957171 57.50537833 108.2059235 58.25 109.875 C58.559375 110.55433594 58.86875 111.23367187 59.1875 111.93359375 C60.40973455 114.85402918 61.21743144 117.80993982 62 120.875 C62.66 120.875 63.32 120.875 64 120.875 C70.11174458 132.94569555 70.11174458 132.94569555 69 138.875 C64.70199588 143.32121115 59.3134761 143.1329902 53.49609375 143.49609375 C50.83147214 143.64821113 50.83147214 143.64821113 49 145.875 C48.50355548 147.77723599 48.50355548 147.77723599 48.3125 149.875 C48.22613281 150.57625 48.13976562 151.2775 48.05078125 152 C47.85010484 153.9679304 47.85010484 153.9679304 49 155.875 C49.3125 159.3125 49.3125 159.3125 49 162.875 C48.32582031 163.34292969 47.65164063 163.81085938 46.95703125 164.29296875 C46.31121094 164.81503906 45.66539062 165.33710938 45 165.875 C44.80916306 168.23690731 44.80916306 168.23690731 45.375 170.75 C46.21249956 175.39173487 46.21249956 175.39173487 45.03125 178.078125 C43.22299828 182.98232285 44.00226136 188.23199822 44.25390625 193.39453125 C44.40990294 199.49675486 43.64780203 202.91805647 40 207.875 C38 209.6171875 38 209.6171875 36 210.75 C35.34 211.13929688 34.68 211.52859375 34 211.9296875 C29.48521111 214.06363069 24.93753061 214.09674663 20.015625 214.26953125 C18.42444219 214.3383429 16.83329714 214.40803242 15.2421875 214.47851562 C12.74984754 214.58550507 10.25779065 214.68722985 7.76464844 214.77368164 C5.34729675 214.85980999 2.93185655 214.96914267 0.515625 215.08203125 C-0.21799255 215.10199661 -0.95161011 215.12196198 -1.7074585 215.14253235 C-8.42362359 215.48926229 -13.34571513 218.02033233 -18.80078125 221.83203125 C-22.25109987 226.60609556 -23.02354978 231.85754948 -24.1875 237.5625 C-24.43435547 238.69623047 -24.68121094 239.82996094 -24.93554688 240.99804688 C-26.36430385 247.60842915 -27.68974609 254.24023022 -29 260.875 C-35.12731544 260.96104283 -41.04805201 260.68582722 -47.1328125 259.9921875 C-47.99093033 259.89761261 -48.84904816 259.80303772 -49.73316956 259.70559692 C-52.53127235 259.39393866 -55.3281947 259.07308462 -58.125 258.75 C-59.0897525 258.63962402 -60.054505 258.52924805 -61.04849243 258.41552734 C-89.56271851 255.13473247 -117.94018324 250.96518601 -146 244.875 C-144.87950246 238.66133183 -143.06774474 233.48142543 -140.36474609 227.78564453 C-135.79017514 218.02928767 -132.00436231 207.87509048 -128 197.875 C-127.31502441 196.17029541 -127.31502441 196.17029541 -126.61621094 194.43115234 C-122.15992035 183.29042586 -117.84017672 172.11919314 -114.375 160.625 C-114.00314575 159.4486499 -114.00314575 159.4486499 -113.6237793 158.24853516 C-109.99496265 145.51092092 -112.11923414 134.51124873 -116.75 122.375 C-117.64436584 119.94929265 -118.53500525 117.52220804 -119.421875 115.09375 C-119.85564453 113.90652344 -120.28941406 112.71929687 -120.73632812 111.49609375 C-129.1491979 87.38873584 -129.92771628 63.19149621 -119.3359375 39.6328125 C-109.28779224 18.89015007 -95.70786976 3.54365989 -74 -5.125 C-71.82411123 -5.86823645 -69.6364008 -6.57789314 -67.4375 -7.25 C-66.36371094 -7.58257812 -65.28992188 -7.91515625 -64.18359375 -8.2578125 C-43.56015486 -13.87548543 -18.46793609 -10.48244053 0 0 Z " fill="#091B27" transform="translate(257,66.125)"/>
<path d="M0 0 C43.209375 -0.144375 86.41875 -0.28875 130.9375 -0.4375 C151.41026978 -0.53309204 151.41026978 -0.53309204 172.29663086 -0.63061523 C188.95031738 -0.66223145 188.95031738 -0.66223145 196.74415588 -0.66810608 C202.19314413 -0.67463348 207.64164535 -0.70030778 213.09046936 -0.73902893 C219.37685737 -0.78363593 225.66276353 -0.80384049 231.94931093 -0.79411465 C235.16439802 -0.78990317 238.37819274 -0.80042813 241.5931319 -0.83450592 C245.04070047 -0.86935207 248.48558136 -0.86092645 251.93321228 -0.84178162 C252.93002801 -0.86217027 253.92684374 -0.88255892 254.953866 -0.90356541 C262.41094991 -0.79233973 266.8061911 1.68403712 272 7 C275.71900753 11.94928203 278.13079657 16.25925232 278.11352539 22.56323242 C278.11344986 23.48396042 278.11337433 24.40468842 278.11329651 25.35331726 C278.10813522 26.34402725 278.10297394 27.33473724 278.09765625 28.35546875 C278.09553383 29.88062859 278.09553383 29.88062859 278.09336853 31.43659973 C278.08776707 34.68692964 278.07521432 37.93719088 278.0625 41.1875 C278.05748519 43.38997296 278.05292225 45.59244701 278.04882812 47.79492188 C278.03779717 53.19663804 278.02105762 58.59831412 278 64 C274.71184965 62.74135367 271.64374204 61.33965381 268.57421875 59.6171875 C267.85580811 59.21612793 267.13739746 58.81506836 266.3972168 58.40185547 C265.50301025 57.89799316 264.60880371 57.39413086 263.6875 56.875 C259.3871875 54.461875 259.3871875 54.461875 255 52 C255 42.43 255 32.86 255 23 C251.01145566 21.67048522 247.18065452 21.84643049 243.0214386 21.84178162 C242.09415451 21.83685196 241.16687042 21.8319223 240.21148682 21.82684326 C237.08150423 21.81141606 233.95154196 21.80309253 230.8215332 21.79467773 C228.54837201 21.78496596 226.27521264 21.77482069 224.00205517 21.76427555 C217.90058961 21.73717357 211.79911682 21.71602467 205.69762421 21.69608307 C199.977559 21.6764936 194.25752198 21.65156988 188.53747559 21.6270752 C171.79583822 21.55850673 155.05416654 21.49853144 138.3125 21.4375 C100.919375 21.293125 63.52625 21.14875 25 21 C25 105.15 25 189.3 25 276 C39.19 276.33 53.38 276.66 68 277 C82.79865772 278.23322148 82.79865772 278.23322148 88.8125 285.0625 C91.49494104 288.66463511 92.11971081 291.10525109 92.20532227 295.47143555 C92.2352401 296.82249641 92.2352401 296.82249641 92.26576233 298.20085144 C92.28247482 299.16968765 92.29918732 300.13852386 92.31640625 301.13671875 C92.33718735 302.13129593 92.35796844 303.12587311 92.37937927 304.15058899 C92.44479412 307.32948867 92.5037224 310.50847134 92.5625 313.6875 C92.60569288 315.84180548 92.64930742 317.99610254 92.69335938 320.15039062 C92.80046726 325.43350588 92.90224873 330.71670379 93 336 C113.97451986 336.02332708 134.94903759 336.04097824 155.92356777 336.05181217 C165.66169607 336.05697554 175.39981632 336.064019 185.13793945 336.07543945 C193.62249493 336.08538506 202.10704458 336.09185313 210.59160572 336.09408849 C215.0869866 336.09539581 219.58235081 336.09848298 224.07772636 336.10573006 C228.30391046 336.11248833 232.53007093 336.11461736 236.75625992 336.11310768 C238.31195898 336.1133841 239.86765879 336.11539036 241.4233532 336.11920547 C243.53811934 336.12413973 245.65279487 336.1229993 247.76756287 336.12025452 C248.95391044 336.12117631 250.14025801 336.1220981 251.3625555 336.12304783 C253.92428226 336.30017936 253.92428226 336.30017936 255 335 C255.13558551 332.06803483 255.21063085 329.15632578 255.24609375 326.22265625 C255.27902754 324.41210446 255.31223926 322.6015577 255.34570312 320.79101562 C255.39318542 317.92264227 255.43761218 315.05429005 255.47680664 312.18579102 C255.51641066 309.42702726 255.5679806 306.66868824 255.62109375 303.91015625 C255.6295079 303.0486647 255.63792206 302.18717316 255.64659119 301.29957581 C255.77332648 295.22667352 255.77332648 295.22667352 258 293 C260.15478516 292.77294922 260.15478516 292.77294922 262.7890625 292.8046875 C263.73007812 292.81113281 264.67109375 292.81757813 265.640625 292.82421875 C266.62546875 292.84097656 267.6103125 292.85773438 268.625 292.875 C269.61757813 292.88402344 270.61015625 292.89304687 271.6328125 292.90234375 C274.08878134 292.92595884 276.54427168 292.95889201 279 293 C279.07640543 299.26212704 279.12874837 305.52413271 279.16479492 311.78662109 C279.17983076 313.91459648 279.20026483 316.04254114 279.22631836 318.17041016 C279.26293089 321.23868417 279.27977881 324.30654649 279.29296875 327.375 C279.30845261 328.31802979 279.32393646 329.26105957 279.33988953 330.23266602 C279.34202607 338.72185635 277.1699281 345.4234963 271.8828125 352.171875 C266.90016256 357.00980067 259.53952074 360.12641964 252.61719227 360.12304783 C251.71570391 360.1250387 250.81421555 360.12702957 249.88540936 360.12908077 C248.89445672 360.12616811 247.90350409 360.12325544 246.88252258 360.12025452 C245.3082827 360.12153854 245.3082827 360.12153854 243.70223999 360.12284851 C240.15735197 360.12451009 236.61251069 360.1189697 233.06762695 360.11352539 C230.49409836 360.11321922 227.92056968 360.11335227 225.34704113 360.11389065 C219.13928724 360.11442289 212.93154778 360.1097999 206.7237976 360.10338932 C199.5451534 360.09619761 192.36651428 360.09539502 185.18786621 360.09460449 C166.22940851 360.08935123 147.27095404 360.07539016 128.3125 360.0625 C85.969375 360.041875 43.62625 360.02125 0 360 C0 241.2 0 122.4 0 0 Z " fill="#0B1C27" transform="translate(0,0)"/>
<path d="M0 0 C1.18851562 0.00902344 2.37703125 0.01804687 3.6015625 0.02734375 C4.51679688 0.03894531 5.43203125 0.05054687 6.375 0.0625 C6.375 0.7225 6.375 1.3825 6.375 2.0625 C7.07625 2.124375 7.7775 2.18625 8.5 2.25 C13.05380223 3.53694411 15.99541934 6.07590385 18.64453125 9.890625 C21.18302679 14.44735904 22.49456613 18.84767883 21.375 24.0625 C18.98115705 30.28013634 15.13987345 35.57898642 9.375 39.0625 C8.385 39.0625 7.395 39.0625 6.375 39.0625 C6.375 44.3425 6.375 49.6225 6.375 55.0625 C13.635 55.0625 20.895 55.0625 28.375 55.0625 C29.035 53.4125 29.695 51.7625 30.375 50.0625 C33.73044849 46.26554513 36.60417756 43.603265 41.63671875 42.62109375 C48.1241534 42.29724436 51.65714262 43.85116082 56.5234375 48.1328125 C59.91827192 51.67088888 61.14972829 54.57007493 61.875 59.375 C61.10705555 65.0385903 59.01393777 69.67874253 54.71875 73.55859375 C49.56574563 76.71371719 44.24623324 76.46582566 38.38671875 75.8125 C33.75648503 74.65944569 32.08828412 72.93862017 29.375 69.0625 C29.375 68.0725 29.375 67.0825 29.375 66.0625 C21.785 66.0625 14.195 66.0625 6.375 66.0625 C6.4064209 69.11310669 6.4064209 69.11310669 6.43847656 72.2253418 C6.50480585 78.95072154 6.54895895 85.67611587 6.58224869 92.40173626 C6.60310852 96.47885654 6.63139619 100.55564122 6.67675781 104.63256836 C6.72027382 108.56832482 6.74414918 112.50375882 6.75450897 116.43973732 C6.76189011 117.94005216 6.77630403 119.44034969 6.79792023 120.94052696 C6.82703262 123.04496531 6.83095302 125.14807767 6.82910156 127.25268555 C6.83798401 128.44959518 6.84686646 129.64650482 6.85601807 130.87968445 C6.27612664 134.71672841 5.13771186 136.37793515 2.375 139.0625 C-0.75 139.5625 -0.75 139.5625 -3.625 139.0625 C-6.05303039 135.42045441 -5.82830681 133.779495 -5.7578125 129.453125 C-5.76167969 127.48472656 -5.76167969 127.48472656 -5.765625 125.4765625 C-5.76366655 123.39766438 -5.75020141 121.32158058 -5.70410156 119.24316406 C-5.31831415 111.05649395 -5.31831415 111.05649395 -8.28808594 103.72460938 C-10.31278119 101.96904928 -12.3738275 100.51113647 -14.625 99.0625 C-17.69105512 96.13971848 -20.50701565 93.06590534 -23.3046875 89.890625 C-30.75341841 80.85702633 -30.75341841 80.85702633 -40.86328125 75.87109375 C-44.74941111 75.67181667 -44.74941111 75.67181667 -48.35546875 76.07421875 C-52.58043562 76.0590755 -54.37289018 74.66418785 -57.625 72.0625 C-62.45921452 66.82543427 -64.08446079 62.30454103 -63.86328125 55.26171875 C-63.16138948 48.7836029 -59.17789757 45.4562851 -54.46484375 41.48046875 C-50.47845354 38.40815527 -46.72967593 38.55248091 -41.8125 38.58203125 C-36.55476825 39.37455699 -33.14389761 42.19993086 -29.625 46.0625 C-25.69318292 51.4654051 -25.94486797 56.60124575 -26.625 63.0625 C-27.38564895 65.4275062 -28.23725498 66.98088247 -29.625 69.0625 C-28.76672607 69.43072876 -28.76672607 69.43072876 -27.89111328 69.80639648 C-25.2412938 71.27518783 -23.48400717 72.99386048 -21.3671875 75.16015625 C-20.57699219 75.96130859 -19.78679687 76.76246094 -18.97265625 77.58789062 C-17.74869141 78.84375977 -17.74869141 78.84375977 -16.5 80.125 C-14.87461294 81.78472622 -13.24711373 83.44238747 -11.6171875 85.09765625 C-10.89901855 85.8337915 -10.18084961 86.56992676 -9.44091797 87.32836914 C-7.72978455 89.13273007 -7.72978455 89.13273007 -5.625 90.0625 C-5.625 73.5625 -5.625 57.0625 -5.625 40.0625 C-7.935 39.4025 -10.245 38.7425 -12.625 38.0625 C-17.91985115 33.29391194 -20.3145056 27.21919306 -21 20.25 C-20.79998025 14.4383151 -18.9154768 9.22623105 -14.6484375 5.1953125 C-9.4972113 1.28038059 -6.55228039 -0.06423804 0 0 Z " fill="#F2F0E9" transform="translate(217.625,83.9375)"/>
<path d="M0 0 C2 3 2 3 3.6237793 6.17016602 C6.3296731 10.92319561 10.12925768 14.48432505 14.01953125 18.27734375 C14.79632736 19.04752335 15.57312347 19.81770294 16.37345886 20.61122131 C18.84609443 23.06056655 21.32867968 25.49950218 23.8125 27.9375 C26.28387044 30.37361 28.7530141 32.81191681 31.21940613 35.25306702 C32.74991519 36.76683149 34.2835096 38.2774854 35.820755 39.78440857 C39.8574813 43.76544082 43.67912061 47.84945609 47.37763977 52.14585876 C49.74265594 54.84875663 52.24886359 57.39248845 54.79296875 59.92578125 C55.3062825 60.44005173 55.81959625 60.9543222 56.34846497 61.48417664 C57.41850263 62.55488667 58.48977125 63.62436792 59.56225586 64.69262695 C61.1982831 66.32324747 62.82883632 67.95920733 64.45898438 69.59570312 C65.50749165 70.64355032 66.5563087 71.69108765 67.60546875 72.73828125 C68.08783493 73.22267166 68.57020111 73.70706207 69.06718445 74.20613098 C71.61176638 76.73318473 74.11007597 78.83255698 77 81 C51.59 81 26.18 81 0 81 C0 54.27 0 27.54 0 0 Z " fill="#FBF7EF" transform="translate(0,279)"/>
<path d="M0 0 C1.19070854 -0.00810448 1.19070854 -0.00810448 2.4054718 -0.01637268 C5.03249267 -0.02889151 7.65842417 -0.01234721 10.28540039 0.00561523 C12.10999102 0.0054603 13.93458199 0.00397231 15.75917053 0.00120544 C19.58503755 -0.00018001 23.41053035 0.01240264 27.23632812 0.03515625 C32.1404279 0.06352128 37.04390478 0.06081099 41.9480505 0.04806614 C45.71673399 0.04111016 49.48527356 0.04889765 53.25393867 0.06132317 C55.06204234 0.06583988 56.87016145 0.06617255 58.67826653 0.06225777 C61.20640581 0.05934684 63.73368779 0.07584702 66.26171875 0.09765625 C67.00938507 0.0931546 67.75705139 0.08865295 68.52737427 0.08401489 C71.70198019 0.1295108 73.8778635 0.3213331 76.66481018 1.90367126 C78.19555664 3.50170898 78.19555664 3.50170898 78.62133789 5.47436523 C78.30666775 11.27948676 78.30666775 11.27948676 77.19555664 13.50170898 C76.53555664 13.50170898 75.87555664 13.50170898 75.19555664 13.50170898 C75.19555664 14.16170898 75.19555664 14.82170898 75.19555664 15.50170898 C64.42558673 15.59430151 53.65571116 15.66541931 42.88542461 15.70895767 C37.88457388 15.7298517 32.88399502 15.75820242 27.88330078 15.8034668 C23.05927157 15.84685987 18.23550421 15.87083241 13.41129494 15.88121796 C11.56882414 15.88862111 9.72636802 15.90307744 7.88400841 15.92462921 C5.30744593 15.95357675 2.73197179 15.95766869 0.15527344 15.95581055 C-0.61005203 15.97019165 -1.3753775 15.98457275 -2.16389465 15.99938965 C-7.30544686 15.95914526 -7.30544686 15.95914526 -9.77848816 13.69207764 C-11.28625633 10.47305975 -11.18000792 8.00697824 -10.80444336 4.50170898 C-8.47175057 -0.42511773 -4.89664417 -0.06314686 0 0 Z " fill="#0A1A24" transform="translate(57.804443359375,66.498291015625)"/>
<path d="M0 0 C1.38289611 0.00933289 2.76580882 0.01644676 4.14872742 0.0214386 C7.7774165 0.04047177 11.40509479 0.08953805 15.03338623 0.1449585 C18.74021736 0.19623215 22.44721286 0.21896978 26.15429688 0.24414062 C33.41973019 0.29766273 40.6843325 0.38292795 47.94921875 0.48828125 C47.94921875 1.14828125 47.94921875 1.80828125 47.94921875 2.48828125 C48.58859375 2.79765625 49.22796875 3.10703125 49.88671875 3.42578125 C51.94921875 4.48828125 51.94921875 4.48828125 52.94921875 5.48828125 C53.32421875 8.23828125 53.32421875 8.23828125 52.94921875 11.48828125 C50.44274643 14.63198771 48.92527971 16.28462893 44.93844604 17.11647034 C43.82164459 17.1174321 42.70484314 17.11839386 41.55419922 17.11938477 C39.64729813 17.13818443 39.64729813 17.13818443 37.70187378 17.15736389 C36.32337412 17.14509782 34.94488432 17.13167814 33.56640625 17.1171875 C32.14584166 17.1180166 30.72527717 17.12047754 29.30471802 17.12449646 C26.33387224 17.12734977 23.36378239 17.11269706 20.39306641 17.08520508 C16.58503194 17.05105916 12.7783431 17.0571646 8.97024345 17.07586765 C6.03965018 17.08643256 3.10937041 17.07750587 0.1788063 17.06248283 C-1.22541244 17.05730088 -2.62966391 17.05778303 -4.03387833 17.06402779 C-5.99414562 17.06947513 -7.95442952 17.04626768 -9.91455078 17.02172852 C-11.02976105 17.01552994 -12.14497131 17.00933136 -13.29397583 17.00294495 C-16.05078125 16.48828125 -16.05078125 16.48828125 -17.90304565 14.66978455 C-19.62934189 11.38860992 -19.56264411 9.13530416 -19.05078125 5.48828125 C-14.70150849 -1.59478339 -7.50414156 -0.1484987 0 0 Z " fill="#15242E" transform="translate(66.05078125,108.51171875)"/>
<path d="M0 0 C1.21450836 -0.00292557 2.42901672 -0.00585114 3.68032837 -0.00886536 C4.98770966 0.00864273 6.29509094 0.02615082 7.64208984 0.04418945 C8.99921184 0.04911494 10.35634064 0.05241279 11.71347046 0.05415344 C14.55317999 0.06178433 17.39238383 0.08231878 20.23193359 0.11328125 C23.87492677 0.15293107 27.51759174 0.17090308 31.16077614 0.18059063 C34.63375861 0.19055373 38.10666077 0.21044227 41.57958984 0.23168945 C43.54673447 0.24276985 43.54673447 0.24276985 45.55361938 0.2540741 C46.76182343 0.26690933 47.97002747 0.27974457 49.21484375 0.29296875 C50.81557236 0.30773506 50.81557236 0.30773506 52.44863892 0.32279968 C54.97802734 0.4699707 54.97802734 0.4699707 56.97802734 1.4699707 C56.97802734 2.1299707 56.97802734 2.7899707 56.97802734 3.4699707 C57.63802734 3.4699707 58.29802734 3.4699707 58.97802734 3.4699707 C60.42233589 6.3585878 60.3549124 8.26644772 59.97802734 11.4699707 C58.33768737 14.10565202 57.64328038 15.04600291 54.97802734 16.4699707 C50.34777076 17.23843692 45.7523702 17.17001122 41.06787109 17.1340332 C39.69454011 17.13740399 38.32121204 17.1422588 36.94789124 17.14852905 C34.07540367 17.15588585 31.20369552 17.14523368 28.33129883 17.12182617 C24.6531966 17.0933098 20.9769163 17.1097645 17.29888058 17.13968849 C14.46515718 17.15777219 11.63186463 17.15199952 8.79812813 17.13904953 C6.78402138 17.13410356 4.76989772 17.1492587 2.75584412 17.16470337 C1.53099808 17.14894257 0.30615204 17.13318176 -0.95581055 17.11694336 C-2.03327042 17.11296539 -3.11073029 17.10898743 -4.22084045 17.10488892 C-7.02197266 16.4699707 -7.02197266 16.4699707 -9.40110779 14.15219116 C-11.02197266 11.4699707 -11.02197266 11.4699707 -11.02197266 7.9074707 C-9.20831989 1.67303931 -6.34740173 -0.03484034 0 0 Z " fill="#11212B" transform="translate(57.02197265625,152.530029296875)"/>
<path d="M0 0 C1.2113562 -0.01268417 2.4227124 -0.02536835 3.67077637 -0.03843689 C5.63488464 -0.03403343 5.63488464 -0.03403343 7.63867188 -0.02954102 C8.99483502 -0.03410174 10.35099586 -0.03940699 11.70715332 -0.04542542 C14.54851678 -0.05435937 17.38959921 -0.05193005 20.23095703 -0.04199219 C23.87307897 -0.03049514 27.51423243 -0.05072206 31.15622711 -0.07990932 C33.95638188 -0.09824983 36.75630355 -0.09798342 39.5565033 -0.0922718 C41.5523898 -0.09204373 43.54825432 -0.1089604 45.54406738 -0.12608337 C46.75542358 -0.11670242 47.96677979 -0.10732147 49.21484375 -0.09765625 C50.28279175 -0.09749008 51.35073975 -0.09732391 52.4510498 -0.09715271 C55.10742188 0.40405273 55.10742188 0.40405273 56.94836426 2.24790955 C58.53906536 5.20701986 58.59042631 7.09202233 58.10742188 10.40405273 C55.87535757 13.25185892 54.55749189 14.2540294 51.10742188 15.40405273 C49.30377543 15.51196474 47.49647713 15.56283301 45.68969727 15.58105469 C44.58167252 15.59388992 43.47364777 15.60672516 42.33204651 15.61994934 C41.13514694 15.62733627 39.93824738 15.63472321 38.70507812 15.64233398 C37.47583115 15.65040573 36.24658417 15.65847748 34.98008728 15.66679382 C32.37842214 15.68063099 29.77673888 15.69135478 27.17504883 15.69921875 C23.18933934 15.71247728 19.20423517 15.7603654 15.21875 15.80444336 C12.69336548 15.81456689 10.16797391 15.82308405 7.64257812 15.82983398 C5.85026512 15.85609612 5.85026512 15.85609612 4.02174377 15.88288879 C2.91056686 15.87996323 1.79938995 15.87703766 0.65454102 15.87402344 C-0.32236191 15.87988968 -1.29926483 15.88575592 -2.30577087 15.89179993 C-5.62410082 15.26612281 -6.80709181 14.00154434 -8.89257812 11.40405273 C-9.60140116 8.49620392 -9.23229601 6.46151373 -8.89257812 3.40405273 C-6.51594313 -0.12451184 -4.05859693 0.02053334 0 0 Z " fill="#0D1D28" transform="translate(55.892578125,196.595947265625)"/>
<path d="M0 0 C2.16015625 0.546875 2.16015625 0.546875 5.22265625 3.109375 C7.47426996 7.10417352 7.97945873 9.04071135 7.16015625 13.546875 C3.95536002 17.42636518 1.85382028 19.35513945 -3.15234375 19.921875 C-6.83984375 19.546875 -6.83984375 19.546875 -9.77734375 17.609375 C-12.18537828 14.03380858 -12.5882032 11.94154958 -12.3125 7.70703125 C-11.83984375 5.546875 -11.83984375 5.546875 -9.90234375 2.484375 C-6.34979141 0.23684189 -4.14803015 -0.2492973 0 0 Z " fill="#13212B" transform="translate(219.83984375,94.453125)"/>
<path d="M0 0 C4.95 0 9.9 0 15 0 C14.01 0.33 13.02 0.66 12 1 C12 1.66 12 2.32 12 3 C10.35051974 4.50034917 8.59634424 5.81956121 6.82421875 7.171875 C2.49351818 11.51184902 1.62379036 16.06982788 1.60127258 22.02352905 C1.59130234 23.04802341 1.59130234 23.04802341 1.58113068 24.09321463 C1.56256278 26.3687749 1.56510166 28.64380649 1.56762695 30.91943359 C1.55860597 32.5557733 1.54827792 34.19210625 1.53674316 35.82843018 C1.50918649 40.26183568 1.49989046 44.69511292 1.49388909 49.12859297 C1.48450197 53.76511172 1.45829829 58.4015348 1.43388367 63.03799438 C1.39022432 71.81385228 1.36167387 80.58969159 1.33856028 89.36562502 C1.31150561 99.35837398 1.26759424 109.35102665 1.22227156 119.34370685 C1.12943336 139.89575276 1.05774882 160.4478275 1 181 C0.67 181 0.34 181 0 181 C0 121.27 0 61.54 0 0 Z " fill="#48575B" transform="translate(0,0)"/>
<path d="M0 0 C0.33 0 0.66 0 1 0 C1.12375 0.969375 1.2475 1.93875 1.375 2.9375 C1.684375 4.4534375 1.684375 4.4534375 2 6 C4.68897467 7.34448733 6.81591649 7.16195764 9.82666016 7.20532227 C11.04777496 7.22526749 12.26888977 7.24521271 13.52700806 7.26576233 C14.86435823 7.28274656 16.20170975 7.29962537 17.5390625 7.31640625 C18.90384553 7.33697603 20.26862218 7.35797251 21.63339233 7.37937927 C25.22707973 7.43459759 28.8208246 7.48400787 32.41461182 7.53222656 C36.08114746 7.58244337 39.74759956 7.63812849 43.4140625 7.69335938 C50.60930426 7.800938 57.80461546 7.90238357 65 8 C64.67 8.99 64.34 9.98 64 11 C55.98538021 11.1158896 47.97111087 11.20471166 39.95586014 11.25906086 C36.2339441 11.28514706 32.51260157 11.32052492 28.79101562 11.37719727 C25.19888431 11.43155547 21.60730428 11.4614279 18.0147934 11.47438622 C16.64479645 11.48361959 15.27482944 11.50165106 13.90506744 11.52865028 C11.98551401 11.56497896 10.06540489 11.56704269 8.14550781 11.56762695 C6.50669647 11.58428154 6.50669647 11.58428154 4.83477783 11.60127258 C2 11 2 11 -0.38409424 8.58952332 C-2 6 -2 6 -2 4 C-1.34 4 -0.68 4 0 4 C0 2.68 0 1.36 0 0 Z " fill="#29353B" transform="translate(48,158)"/>
<path d="M0 0 C1.875 0.37890625 1.875 0.37890625 3.875 1.94140625 C5.27269399 5.34828536 5.40465444 7.73753197 4.875 11.37890625 C2.8125 13.37890625 2.8125 13.37890625 -0.125 14.37890625 C-3.8125 14.25390625 -3.8125 14.25390625 -7.125 13.37890625 C-9.45079101 9.89021974 -9.54365457 8.48172106 -9.125 4.37890625 C-7.23957524 -0.09897756 -4.45962712 -0.25413316 0 0 Z " fill="#13202A" transform="translate(175.125,133.62109375)"/>
<path d="M0 0 C2.3125 1.625 2.3125 1.625 4 4 C4.5 7.0625 4.5 7.0625 4 10 C1.88310295 12.35210784 0.55958485 12.91810953 -2.5625 13.375 C-5 13 -5 13 -6.8125 11.9375 C-8.67036623 8.90624457 -8.37133265 6.46577141 -8 3 C-5.9566042 -0.33396157 -3.74826026 -0.63994687 0 0 Z " fill="#1C272F" transform="translate(264,137)"/>
<path d="M0 0 C1.65 0.33 3.3 0.66 5 1 C5 17.5 5 34 5 51 C1.75564922 49.37782461 0.20030809 48.45544522 -2.234375 46.03125 C-2.80800781 45.46019531 -3.38164062 44.88914063 -3.97265625 44.30078125 C-4.55917969 43.70652344 -5.14570313 43.11226562 -5.75 42.5 C-6.35199219 41.90574219 -6.95398438 41.31148437 -7.57421875 40.69921875 C-8.14269531 40.12816406 -8.71117187 39.55710938 -9.296875 38.96875 C-9.81604492 38.44732422 -10.33521484 37.92589844 -10.87011719 37.38867188 C-12 36 -12 36 -12 34 C-7.75674237 34.47470234 -6.06772589 36.79898839 -3.375 39.9375 C-2.59898437 40.83339844 -1.82296875 41.72929687 -1.0234375 42.65234375 C-0.35570312 43.42707031 0.31203125 44.20179688 1 45 C1.66 45.66 2.32 46.32 3 47 C3.33 32.15 3.66 17.3 4 2 C2.68 2 1.36 2 0 2 C0 1.34 0 0.68 0 0 Z " fill="#383938" transform="translate(207,123)"/>
<path d="M0 0 C4.95 0 9.9 0 15 0 C14.01 0.33 13.02 0.66 12 1 C12 1.66 12 2.32 12 3 C10.9523451 3.89756951 9.8603372 4.74374295 8.75 5.5625 C4.52468839 9.01645655 2.80953579 12.94229128 1 18 C0.67 18 0.34 18 0 18 C0 12.06 0 6.12 0 0 Z " fill="#EFEDE7" transform="translate(0,0)"/>
<path d="M0 0 C1.21150726 -0.01283524 2.42301453 -0.02567047 3.67123413 -0.03889465 C5.65082626 -0.04997505 5.65082626 -0.04997505 7.67041016 -0.0612793 C8.33873493 -0.06535482 9.00705971 -0.06943035 9.69563675 -0.07362938 C13.23279768 -0.09450545 16.76991964 -0.10880054 20.30712891 -0.11816406 C23.96491131 -0.12923317 27.6220861 -0.16363323 31.27965355 -0.20333576 C34.08833972 -0.22945467 36.89688009 -0.2378516 39.70567703 -0.24144554 C41.71047867 -0.24869815 43.71518085 -0.27515788 45.71981812 -0.30183411 C46.9376297 -0.29890854 48.15544128 -0.29598297 49.41015625 -0.29296875 C51.02112686 -0.30176811 51.02112686 -0.30176811 52.66464233 -0.31074524 C55.33447266 0.17700195 55.33447266 0.17700195 57.19302368 2.00325012 C58.6802364 4.83546728 58.54932241 7.02587221 58.33447266 10.17700195 C55.04261418 7.60076488 54.89455389 5.19001121 54.33447266 1.17700195 C46.69885859 1.2944959 39.06339006 1.41932934 31.42797852 1.54931641 C28.82937352 1.59268334 26.23073971 1.6343571 23.63208008 1.67431641 C19.90127874 1.73197619 16.17062272 1.79568324 12.43994141 1.8605957 C11.27424118 1.8773082 10.10854095 1.89402069 8.90751648 1.91123962 C7.82662247 1.93118484 6.74572845 1.95113007 5.63208008 1.97167969 C4.67943771 1.98722397 3.72679535 2.00276825 2.74528503 2.01878357 C0.19056068 2.08418273 0.19056068 2.08418273 -2.66552734 3.17700195 C-2.66552734 2.51700195 -2.66552734 1.85700195 -2.66552734 1.17700195 C-3.32552734 1.83700195 -3.98552734 2.49700195 -4.66552734 3.17700195 C-5.98300058 3.87448779 -7.31466928 4.54660152 -8.66552734 5.17700195 C-6.25222449 0.18950939 -5.62915773 0.05167396 0 0 Z " fill="#212629" transform="translate(55.66552734375,196.822998046875)"/>
<path d="M0 0 C27.72 0.33 55.44 0.66 84 1 C84 1.33 84 1.66 84 2 C56.61 2.33 29.22 2.66 1 3 C0.67 2.01 0.34 1.02 0 0 Z " fill="#0E222F" transform="translate(48,78)"/>
<path d="M0 0 C1.46300537 -0.0009668 1.46300537 -0.0009668 2.95556641 -0.00195312 C9.95301243 0.04926757 16.54498522 0.57365685 23.375 2.1875 C20.27726756 3.02812397 17.59167249 3.27685201 14.375 3.1875 C14.375 3.5175 14.375 3.8475 14.375 4.1875 C12.065 4.1875 9.755 4.1875 7.375 4.1875 C8.035 3.8575 8.695 3.5275 9.375 3.1875 C9.375 2.5275 9.375 1.8675 9.375 1.1875 C4.425 1.1875 -0.525 1.1875 -5.625 1.1875 C-5.625 1.8475 -5.625 2.5075 -5.625 3.1875 C-16.18308656 4.52007403 -16.18308656 4.52007403 -20.625 3.1875 C-14.28611839 -0.46954708 -7.09808151 -0.00481144 0 0 Z " fill="#717679" transform="translate(212.625,55.8125)"/>
<path d="M0 0 C7.59 0 15.18 0 23 0 C22.67 0.66 22.34 1.32 22 2 C15.73 1.67 9.46 1.34 3 1 C2.67 13.54 2.34 26.08 2 39 C1.67 39 1.34 39 1 39 C0.67 26.13 0.34 13.26 0 0 Z " fill="#333F47" transform="translate(224,150)"/>
<path d="M0 0 C4.21852642 0.48046998 5.88413108 2.74797029 8.5625 5.875 C11.5619807 9.38765724 11.5619807 9.38765724 14.77734375 12.6953125 C16 14 16 14 16 16 C11.71357676 14.33536962 8.91382783 11.20924163 5.75 8 C5.19570312 7.4534375 4.64140625 6.906875 4.0703125 6.34375 C0 2.2533867 0 2.2533867 0 0 Z " fill="#232A30" transform="translate(195,157)"/>
<path d="M0 0 C4.27060618 -0.11589162 8.54080984 -0.18714802 12.8125 -0.25 C14.02744141 -0.28351563 15.24238281 -0.31703125 16.49414062 -0.3515625 C18.23920898 -0.37089844 18.23920898 -0.37089844 20.01953125 -0.390625 C21.62985229 -0.4220459 21.62985229 -0.4220459 23.27270508 -0.45410156 C26 0 26 0 27.86206055 1.82128906 C29.34275432 4.65624106 29.21484307 6.84896826 29 10 C25.38296899 7.16928008 25.86880418 6.21282508 25 1 C16.75 1 8.5 1 0 1 C0 0.67 0 0.34 0 0 Z " fill="#1E2123" transform="translate(85,197)"/>
<path d="M0 0 C1.32 0.66 2.64 1.32 4 2 C1.03 4.31 -1.94 6.62 -5 9 C-5.66 8.67 -6.32 8.34 -7 8 C-4.69 5.36 -2.38 2.72 0 0 Z " fill="#252E34" transform="translate(158,76)"/>
<path d="M0 0 C0.66 0.33 1.32 0.66 2 1 C0.6875 3 0.6875 3 -1 5 C-1.99 5 -2.98 5 -4 5 C-4 4.34 -4 3.68 -4 3 C-5.918125 3.061875 -5.918125 3.061875 -7.875 3.125 C-10.0546875 3.1953125 -10.0546875 3.1953125 -12 3 C-12.66 2.34 -13.32 1.68 -14 1 C-12.86111328 1.01740234 -12.86111328 1.01740234 -11.69921875 1.03515625 C-10.70535156 1.04417969 -9.71148437 1.05320313 -8.6875 1.0625 C-7.70136719 1.07410156 -6.71523438 1.08570313 -5.69921875 1.09765625 C-2.90036151 1.12329862 -2.90036151 1.12329862 0 0 Z " fill="#4F5659" transform="translate(269,158)"/>
<path d="M0 0 C0.99 0 1.98 0 3 0 C1.64978174 4.41889613 -0.26115668 6.34345343 -4 9 C-4.66 8.34 -5.32 7.68 -6 7 C-5.01 6.67 -4.02 6.34 -3 6 C-1.84478498 3.52869082 -1.84478498 3.52869082 -1 1 C-0.67 0.67 -0.34 0.34 0 0 Z " fill="#262F36" transform="translate(277,150)"/>
<path d="M0 0 C0.8531488 2.38881665 1.12563748 3.62308755 0.3125 6.0625 C-1.18464888 8.27257692 -2.79042813 9.52695209 -5 11 C-5.33 10.01 -5.66 9.02 -6 8 C-4.4045651 5.94272868 -2.73473712 3.94125344 -1 2 C-0.67 1.34 -0.34 0.68 0 0 Z " fill="#242D33" transform="translate(236,112)"/>
<path d="M0 0 C0.98484375 0.01804688 1.9696875 0.03609375 2.984375 0.0546875 C4.10585937 0.08949219 4.10585937 0.08949219 5.25 0.125 C5.25 0.785 5.25 1.445 5.25 2.125 C-5.30808656 3.45757403 -5.30808656 3.45757403 -9.75 2.125 C-6.40060119 0.09941119 -3.88037449 -0.09238987 0 0 Z " fill="#45494D" transform="translate(201.75,56.875)"/>
<path d="M0 0 C4.3177458 0.50797009 8.03302114 1.19682779 12 3 C9.27157939 4.36421031 7.39046682 3.87807211 4.375 3.5625 C3.37210938 3.46066406 2.36921875 3.35882813 1.3359375 3.25390625 C0.56507813 3.17011719 -0.20578125 3.08632813 -1 3 C-0.67 2.01 -0.34 1.02 0 0 Z " fill="#494F52" transform="translate(236,59)"/>
<path d="M0 0 C0.33 0 0.66 0 1 0 C1.45572917 2.01822917 1.91145833 4.03645833 2.3671875 6.0546875 C2.90474428 8.20719964 2.90474428 8.20719964 5 10 C2.625 9.8125 2.625 9.8125 0 9 C-1.3125 6.4375 -1.3125 6.4375 -2 4 C-1.34 4 -0.68 4 0 4 C0 2.68 0 1.36 0 0 Z " fill="#19242B" transform="translate(48,158)"/>
<path d="M0 0 C1.32 0 2.64 0 4 0 C4 0.66 4 1.32 4 2 C5.65 1.67 7.3 1.34 9 1 C9 1.99 9 2.98 9 4 C6.36 3.67 3.72 3.34 1 3 C0.67 2.01 0.34 1.02 0 0 Z " fill="#19232B" transform="translate(118,310)"/>
<path d="M0 0 C1.875 0.3125 1.875 0.3125 4 1 C6.29013653 4.4352048 6.17842973 5.985331 6 10 C2.69946799 7.41697495 2.60984993 5.00758523 2 1 C1.34 0.67 0.68 0.34 0 0 Z " fill="#414649" transform="translate(108,197)"/>
<path d="M0 0 C2 2 2 2 2.125 5.125 C2.08375 6.07375 2.0425 7.0225 2 8 C1.01 7.67 0.02 7.34 -1 7 C-0.67 4.69 -0.34 2.38 0 0 Z " fill="#0E1B23" transform="translate(167,136)"/>
<path d="M0 0 C1.98 0 3.96 0 6 0 C5.67 0.99 5.34 1.98 5 3 C3.35 3 1.7 3 0 3 C0 2.01 0 1.02 0 0 Z " fill="#16222A" transform="translate(170,120)"/>
</svg>
