<?xml version="1.0" encoding="UTF-8"?>
<svg version="1.1" xmlns="http://www.w3.org/2000/svg" width="415" height="415">
<path d="M0 0 C17.13651508 14.48529615 27.64640075 38.71645707 30.90234375 60.66015625 C30.93891459 62.65123507 30.97374374 64.64242398 30.98779297 66.63378906 C31.21772453 79.86762763 35.89794971 89.73221437 41.77734375 101.37109375 C42.27250488 102.35174805 42.76766602 103.33240234 43.27783203 104.34277344 C44.25722597 106.26456695 45.24986295 108.17968451 46.25732422 110.08691406 C51.02434259 119.27865171 51.02434259 119.27865171 50.90234375 124.66015625 C48.84618582 127.84983714 47.4125689 128.53228501 43.73828125 129.453125 C42.59617187 129.58332031 41.4540625 129.71351563 40.27734375 129.84765625 C35.94061249 130.25244636 35.94061249 130.25244636 31.90234375 131.66015625 C30.40038169 136.16604244 30.99166051 140.59957513 31.16015625 145.3125 C30.87646889 148.99613735 30.12963993 149.88039757 27.90234375 152.66015625 C27.61526375 155.08275494 27.61526375 155.08275494 27.83984375 157.59765625 C28.01249457 160.46188901 28.09917304 162.22896991 26.8984375 164.859375 C25.148619 169.77945289 25.90469867 175.01907389 26.15625 180.1796875 C26.31237766 186.28703415 25.51913813 189.68227141 21.90234375 194.66015625 C13.05337686 203.44878927 -2.51606122 201.9923494 -14.00585938 202.13867188 C-21.94496561 202.33947592 -30.72945897 203.12524311 -36.828125 208.87109375 C-42.33363761 216.62963152 -43.12513287 228.41748832 -44.61572266 237.58789062 C-44.7657373 238.45994141 -44.91575195 239.33199219 -45.0703125 240.23046875 C-45.19672119 241.01180176 -45.32312988 241.79313477 -45.45336914 242.59814453 C-46.2618464 245.18563939 -46.80381852 246.17737952 -49.09765625 247.66015625 C-51.58940213 247.80667238 -53.75241044 247.76104403 -56.21875 247.54296875 C-56.95935165 247.48771027 -57.69995331 247.43245178 -58.46299744 247.3755188 C-69.40278836 246.48724726 -80.28515576 244.99411776 -91.16015625 243.53515625 C-92.30876129 243.3828656 -93.45736633 243.23057495 -94.64077759 243.07366943 C-110.57736678 240.95324582 -126.45279723 238.58126642 -142.28515625 235.78515625 C-143.56883591 235.55889557 -143.56883591 235.55889557 -144.87844849 235.32806396 C-147.25859586 234.90546289 -149.63743678 234.47644771 -152.015625 234.04296875 C-152.71197052 233.91722473 -153.40831604 233.79148071 -154.12576294 233.66192627 C-158.85827136 232.77984869 -158.85827136 232.77984869 -161.09765625 231.66015625 C-160.49093282 226.17932976 -158.58921789 221.65516125 -156.4140625 216.65234375 C-155.64772359 214.8558905 -154.88161954 213.05933705 -154.11572266 211.26269531 C-153.7142804 210.32719849 -153.31283813 209.39170166 -152.89923096 208.42785645 C-145.31154382 190.71390913 -138.09593759 172.98417424 -132.09765625 154.66015625 C-131.83791016 153.88945801 -131.57816406 153.11875977 -131.31054688 152.32470703 C-125.24712121 134.07923077 -127.99200637 121.33557211 -134.765625 103.8671875 C-136.90821936 98.31158054 -138.62862923 92.74020147 -140.09765625 86.97265625 C-140.29254639 86.21355957 -140.48743652 85.45446289 -140.68823242 84.67236328 C-146.34140043 61.94089465 -142.2803023 39.95463108 -130.84765625 19.59765625 C-117.79518965 -1.72512324 -101.27345666 -13.52331488 -77.3671875 -20.08984375 C-49.59942925 -26.28915722 -22.04096428 -16.64884944 0 0 Z M-72.09765625 9.66015625 C-76.66870928 15.32165326 -78.52624766 20.64059084 -78.44140625 27.89453125 C-77.68087088 34.01338397 -74.74331096 39.59632375 -70.03515625 43.59765625 C-67.30922573 45.63318065 -67.30922573 45.63318065 -64.92480469 46.6965332 C-62.31786287 49.49819449 -62.70695992 51.68179612 -62.79693604 55.40361023 C-62.83945496 56.3068251 -62.88197388 57.21003998 -62.92578125 58.140625 C-62.967565 59.53260857 -62.967565 59.53260857 -63.01019287 60.95271301 C-63.10361536 63.91868968 -63.22528803 66.88274635 -63.34765625 69.84765625 C-63.41592436 71.85735949 -63.48235354 73.86712611 -63.546875 75.87695312 C-63.70913366 80.80567664 -63.89673567 85.73286347 -64.09765625 90.66015625 C-68.8070765 86.55958396 -73.48494012 82.43175972 -78.09765625 78.22265625 C-79.04640625 77.35769531 -79.99515625 76.49273437 -80.97265625 75.6015625 C-81.67390625 74.96089844 -82.37515625 74.32023437 -83.09765625 73.66015625 C-82.86175781 72.87898438 -82.86175781 72.87898438 -82.62109375 72.08203125 C-81.16021803 65.32275552 -80.62428058 57.17946478 -84.16015625 51.03515625 C-86.89865723 47.5099036 -89.73461578 44.8514301 -94.09765625 43.66015625 C-100.2849055 42.96787661 -105.92931406 42.67108788 -111.66015625 45.28515625 C-117.02855277 50.51590158 -121.3611481 55.10458568 -121.47265625 62.91015625 C-121.34416469 68.26397139 -120.5474909 72.45745714 -117.09765625 76.66015625 C-110.69251212 81.73616968 -106.45640568 82.73356558 -98.43359375 82.01171875 C-94.19857509 82.8349191 -92.4781268 84.57178433 -89.40429688 87.49707031 C-86.81742464 89.92294753 -84.08502105 92.09973169 -81.3203125 94.3203125 C-63.58072848 109.27374209 -63.58072848 109.27374209 -62.484375 120.734375 C-62.06594477 127.14537987 -62.46447722 133.55048021 -63.16503906 139.93066406 C-63.34453688 142.65782687 -63.34453688 142.65782687 -61.83496094 144.51464844 C-58.94777147 146.41834335 -56.44073807 146.01834359 -53.09765625 145.66015625 C-50.48172472 143.82900418 -50.1277617 142.75047259 -49.09765625 139.66015625 C-48.9851755 137.56505491 -48.93115762 135.46664535 -48.90820312 133.36865234 C-48.8914856 132.07075775 -48.87476807 130.77286316 -48.85754395 129.43563843 C-48.84752098 128.3962166 -48.84752098 128.3962166 -48.83729553 127.33579636 C-48.81625183 125.16768429 -48.78923313 122.99972009 -48.76062012 120.83169556 C-48.69082258 115.44970049 -48.63129144 110.06760076 -48.57159424 104.68548584 C-48.52073991 100.13360841 -48.4659541 95.5818124 -48.40577698 91.03004837 C-48.37912891 88.88898355 -48.3583631 86.7479114 -48.33776855 84.60678101 C-48.32105103 83.31519073 -48.3043335 82.02360046 -48.28710938 80.69287109 C-48.2745813 79.5494223 -48.26205322 78.40597351 -48.24914551 77.22787476 C-48.09765625 74.66015625 -48.09765625 74.66015625 -47.09765625 73.66015625 C-44.1625131 73.42546363 -41.2871922 73.28904764 -38.34765625 73.22265625 C-37.53554688 73.17689453 -36.7234375 73.13113281 -35.88671875 73.08398438 C-29.94497984 72.97269773 -29.94497984 72.97269773 -27.49438477 74.9609375 C-26.1796875 76.5703125 -26.1796875 76.5703125 -24.09765625 79.66015625 C-18.70468788 83.60623067 -12.51725566 83.54474672 -6.09765625 82.66015625 C-1.02698829 80.81403928 2.88622635 77.62830648 5.27734375 72.75 C6.97509617 67.07314036 6.84039609 61.60841879 4.27734375 56.28515625 C-1.22009019 50.12103966 -1.22009019 50.12103966 -8.70703125 47.421875 C-17.1270608 47.21843979 -17.1270608 47.21843979 -24.09765625 51.66015625 C-25.05671875 52.95953125 -25.05671875 52.95953125 -26.03515625 54.28515625 C-28.72288084 57.38011184 -31.15664488 58.17275202 -35.09765625 58.66015625 C-39.10661673 58.85299232 -43.09137553 58.9318756 -47.09765625 58.66015625 C-48.75532423 57.00248827 -48.30815128 55.0566922 -48.34765625 52.78515625 C-48.3734375 51.90085938 -48.39921875 51.0165625 -48.42578125 50.10546875 C-48.02835852 47.14372318 -47.39496197 46.49696601 -45.09765625 44.66015625 C-44.45828125 44.12777344 -43.81890625 43.59539062 -43.16015625 43.046875 C-42.47953125 42.48613281 -41.79890625 41.92539063 -41.09765625 41.34765625 C-36.82642658 37.56322114 -34.48033144 34.73460352 -33.75390625 28.8984375 C-33.39773468 21.80171892 -34.33647333 17.01804094 -39.09765625 11.66015625 C-44.25617013 6.50164237 -48.48124806 4.35925299 -55.78515625 4.22265625 C-62.34007795 4.33849166 -67.12314577 5.24541022 -72.09765625 9.66015625 Z " fill="#081A26" transform="translate(318.09765625,111.33984375)"/>
<path d="M0 0 C1.23375632 -0.00668677 1.23375632 -0.00668677 2.49243701 -0.01350862 C3.3958232 -0.01332426 4.2992094 -0.01313989 5.22997093 -0.01294994 C6.66986824 -0.01846498 6.66986824 -0.01846498 8.13885438 -0.02409142 C11.36994603 -0.03514407 14.60100553 -0.0389748 17.83211327 -0.04278088 C20.14304774 -0.04904437 22.45398121 -0.05569107 24.76491356 -0.0626936 C31.05439232 -0.08011474 37.34386347 -0.09065858 43.63336039 -0.09889913 C47.56205344 -0.10404732 51.49074412 -0.11012316 55.4194355 -0.11641026 C66.30032717 -0.13328183 77.18121591 -0.14791616 88.06211853 -0.155159 C90.88551523 -0.15706884 93.70891191 -0.15898918 96.53230858 -0.16094494 C97.23403637 -0.16142868 97.93576415 -0.16191242 98.65875642 -0.16241082 C110.02068959 -0.1707072 121.38251735 -0.19603721 132.74440451 -0.22852562 C144.41418503 -0.2616218 156.08390659 -0.27927753 167.75373399 -0.28280324 C174.30395445 -0.28515462 180.85400833 -0.29412681 187.40418434 -0.31926441 C193.56835989 -0.3425379 199.73225912 -0.34678104 205.89646721 -0.33650303 C208.15672919 -0.33600738 210.41700474 -0.34233642 212.67722511 -0.35605907 C215.76805411 -0.37377188 218.85789084 -0.36667419 221.94872093 -0.35352612 C222.8387228 -0.36449536 223.72872466 -0.37546461 224.64569628 -0.38676625 C232.0131331 -0.31133926 237.49566825 2.00206261 243.72029686 5.82172108 C248.50183004 10.73607463 252.10517513 17.29878325 252.08382225 24.23846912 C252.08374672 25.05909336 252.08367119 25.8797176 252.08359337 26.72520924 C252.07843208 27.60655033 252.0732708 28.48789143 252.06795311 29.39593983 C252.06583069 30.75462933 252.06583069 30.75462933 252.06366539 32.1407671 C252.05806687 35.03445198 252.04551467 37.92805957 252.03279686 40.82172108 C252.02778167 42.7833085 252.02321879 44.74489714 252.01912498 46.7064867 C252.00809793 51.51576129 251.99083433 56.32497808 251.97029686 61.13422108 C247.33929928 60.34513357 243.79442901 58.56513504 239.78279686 56.19672108 C239.15437889 55.83642811 238.52596092 55.47613514 237.87849998 55.1049242 C235.31013268 53.61334832 233.07915974 52.24308396 230.97029686 50.13422108 C230.66731834 47.44452381 230.66731834 47.44452381 230.59139061 44.06781483 C230.55723045 42.8606078 230.5230703 41.65340076 230.48787498 40.4096117 C230.44823631 38.50985584 230.44823631 38.50985584 230.40779686 36.57172108 C230.34814896 34.07031648 230.28456833 31.56900147 230.21639061 29.06781483 C230.19246239 27.95462879 230.16853416 26.84144276 230.14388084 25.69452381 C230.25678052 23.20148592 230.25678052 23.20148592 228.97029686 22.13422108 C226.02691627 22.03402221 223.10692315 21.99983747 220.16304588 22.00723743 C219.22776353 22.00567744 218.29248118 22.00411745 217.32885695 22.00251019 C214.16960773 21.99849589 211.01040588 22.00169149 207.85115623 22.00482655 C205.59650202 22.0034727 203.34184802 22.00169286 201.08719444 21.99951649 C194.94481494 21.99494022 188.80245214 21.9967325 182.66007233 21.99989557 C176.24765158 22.00241818 169.83523231 22.00008191 163.42281151 21.99850941 C151.96108295 21.99657054 140.49936369 21.99968837 129.0376367 22.00476874 C118.63514073 22.00923679 108.23265591 22.00846086 97.83016014 22.00384998 C85.76419174 21.99850432 73.69823177 21.99650333 61.63226175 21.99946225 C55.23994777 22.00102548 48.84764148 22.00121753 42.45532799 21.99792576 C36.44722474 21.99504824 30.43914267 21.99702052 24.43104172 22.00282001 C22.21903265 22.00414826 20.00702181 22.00375242 17.79501343 22.00155735 C14.78916706 21.99884836 11.78338973 22.00222388 8.77754784 22.00723743 C7.44639954 22.00389135 7.44639954 22.00389135 6.08835936 22.00047767 C2.21810621 21.63060154 2.21810621 21.63060154 -1.02970314 23.13422108 C-1.13195054 24.49355235 -1.16550129 25.85812816 -1.17116165 27.22128773 C-1.17725279 28.10744455 -1.18334394 28.99360138 -1.18961966 29.90661144 C-1.19127989 30.89131735 -1.19294011 31.87602325 -1.19465065 32.89056873 C-1.20029419 33.92793989 -1.20593774 34.96531105 -1.2117523 36.0341177 C-1.22956801 39.53883485 -1.24020063 43.04353797 -1.25089455 46.54828358 C-1.26210221 49.04924169 -1.27373409 51.55019793 -1.28576088 54.05115223 C-1.3139107 60.15610937 -1.33735835 66.26106818 -1.35853864 72.36605215 C-1.37584058 77.32550587 -1.39507297 82.28494856 -1.41570091 87.24438953 C-1.41862951 87.94890708 -1.4215581 88.65342462 -1.42457544 89.37929118 C-1.43053222 90.81028193 -1.43649343 92.24127267 -1.44245903 93.67226338 C-1.49823365 107.10635785 -1.54788399 120.54046967 -1.59546404 133.97459531 C-1.63647708 145.51415426 -1.68273651 157.05368247 -1.73282814 168.59320545 C-1.79092569 181.97760074 -1.84577946 195.3620028 -1.89542902 208.7464323 C-1.90072736 210.17230576 -1.90602997 211.5981792 -1.9113369 213.02405262 C-1.91394673 213.72570093 -1.91655657 214.42734924 -1.91924549 215.15025961 C-1.93790704 220.10661249 -1.95890887 225.06295233 -1.98080254 230.01929188 C-2.01017328 236.68399499 -2.03425255 243.3487027 -2.05470276 250.01344013 C-2.06304284 252.46733975 -2.07311422 254.92123416 -2.08499146 257.37511921 C-2.10085517 260.70937467 -2.11061177 264.04359146 -2.11872292 267.37787342 C-2.12484459 268.36257933 -2.13096626 269.34728523 -2.13727343 270.36183071 C-2.13814908 271.24798754 -2.13902473 272.13414436 -2.13992691 273.04715443 C-2.14280232 273.81782434 -2.14567773 274.58849426 -2.14864028 275.38251781 C-2.22065171 277.16246638 -2.22065171 277.16246638 -1.02970314 278.13422108 C1.930873 278.28266115 4.87085784 278.36955195 7.83357811 278.41547108 C9.18711639 278.44308521 9.18711639 278.44308521 10.56799889 278.47125721 C13.47286298 278.53019127 16.37779062 278.58280504 19.28279686 278.63422108 C53.45997718 279.25148132 53.45997718 279.25148132 59.97029686 284.13422108 C65.85786816 290.34003947 66.28341653 296.06246422 66.38435936 304.24750233 C66.40372551 305.21705357 66.42309166 306.1866048 66.44304466 307.18553638 C66.50267122 310.27250935 66.54915826 313.35951995 66.59529686 316.44672108 C66.6334922 318.54374226 66.67254484 320.64074801 66.71248436 322.7377367 C66.80835895 327.86977239 66.89245263 333.00188151 66.97029686 338.13422108 C88.20558437 338.15754808 109.44086978 338.17519927 130.67616749 338.18603325 C140.53536405 338.19119663 150.39455266 338.19824013 160.25374413 338.20966053 C168.84377503 338.21960608 177.43380017 338.2260742 186.02383667 338.22830957 C190.57510881 338.2296169 195.1263645 338.23270413 199.67763138 338.23995113 C203.95634505 338.24670933 208.23503539 338.24883845 212.51375389 338.24732876 C214.08880362 338.24760518 215.66385409 338.24961149 217.23889923 338.25342655 C219.37993938 338.25836068 221.52089001 338.25722043 223.66193199 338.25447559 C225.46357638 338.25585828 225.46357638 338.25585828 227.30161762 338.25726891 C229.89090797 338.43820582 229.89090797 338.43820582 230.97029686 337.13422108 C231.09347276 334.28668417 231.15642768 331.45965124 231.18123436 328.61078358 C231.20930305 326.85035761 231.23796751 325.08994107 231.26717186 323.32953358 C231.30846233 320.54242686 231.34533205 317.75549593 231.37166405 314.96820545 C231.3992255 312.28619115 231.44509844 309.60498728 231.49373436 306.92328358 C231.49698723 306.0888271 231.5002401 305.25437061 231.50359154 304.39462757 C231.62728001 298.59074323 231.62728001 298.59074323 233.26366234 296.41287708 C236.15981186 294.24300478 239.56310979 294.74502596 243.03279686 294.82172108 C244.13204491 294.81688709 244.13204491 294.81688709 245.25349998 294.81195545 C250.70307747 294.86700169 250.70307747 294.86700169 252.97029686 297.13422108 C253.18304101 300.11471931 253.27424491 302.99971193 253.27107811 305.98187733 C253.27536324 306.86774021 253.27964836 307.7536031 253.28406334 308.66631031 C253.28981565 310.54679987 253.2903003 312.42731169 253.28597069 314.30780506 C253.28283594 317.16114857 253.30616973 320.01342967 253.33162498 322.86664295 C253.33390066 324.69671978 253.33460023 326.52679937 253.33357811 328.35687733 C253.34278786 329.2009766 253.3519976 330.04507587 253.36148643 330.91475391 C253.29338413 339.81149199 251.06846888 346.87897722 244.94295311 353.40765858 C239.49129394 358.17920977 233.27440412 360.23513361 226.11653709 360.33954334 C224.88787926 360.35946842 223.65922142 360.3793935 222.39333153 360.39992237 C221.02185372 360.41702584 219.65037329 360.43391979 218.27889061 360.45062733 C216.82431723 360.47153328 215.3697478 360.49271505 213.91518211 360.51414967 C209.07947701 360.58304101 204.2436592 360.6401576 199.40779686 360.69672108 C197.73068264 360.71707666 196.05356879 360.73746259 194.37645531 360.7578783 C165.67068988 361.10168844 136.96317818 361.29471807 108.25548363 361.36539173 C103.86063562 361.37649364 99.46589479 361.39436328 95.07109642 361.417943 C89.85139337 361.44531671 84.63186494 361.45757188 79.41209221 361.45835781 C77.4816328 361.46098545 75.55117263 361.46868211 73.62075615 361.48182201 C70.964525 361.49889501 68.30893388 361.49709023 65.65266991 361.49066639 C64.88586623 361.499884 64.11906256 361.50910162 63.32902241 361.51859856 C56.28144949 361.46437037 50.02822742 359.84595857 44.96028709 354.70770741 C43.94399475 353.69569012 43.94399475 353.69569012 42.90717125 352.66322803 C41.85367233 351.57572506 41.85367233 351.57572506 40.77889061 350.46625233 C39.65548019 349.33578732 39.65548019 349.33578732 38.50937462 348.18248463 C36.13019817 345.7820701 33.76921801 343.36459054 31.40779686 340.94672108 C29.81840796 339.3408081 28.22792282 337.7359793 26.63631248 336.13226795 C14.94043854 324.30175273 14.94043854 324.30175273 10.37190819 319.01825428 C7.23319063 315.38902443 3.9229677 312.00281193 0.48592186 308.65765858 C-0.7083708 307.48086161 -1.90237291 306.30376972 -3.09610939 305.12640858 C-4.94494277 303.30861077 -6.79603267 301.49329606 -8.65226173 299.6830492 C-10.46720312 297.91055979 -12.27245309 296.12864729 -14.07657814 294.34515858 C-14.90630135 293.54336674 -14.90630135 293.54336674 -15.75278664 292.72537708 C-20.50411922 288.0057447 -23.74561882 282.85047889 -24.15735364 276.01501697 C-24.15860014 275.24786918 -24.15984663 274.48072139 -24.16113091 273.69032669 C-24.16497205 272.80088031 -24.1688132 271.91143393 -24.17277074 270.99503464 C-24.17190426 270.0219975 -24.17103777 269.04896037 -24.17014503 268.04643726 C-24.17311616 267.00947494 -24.17608728 265.97251261 -24.17914844 264.90412718 C-24.18784221 261.41823566 -24.18934428 257.93237845 -24.19083595 254.44647694 C-24.19546372 251.95145055 -24.20048833 249.45642488 -24.20588112 246.96140003 C-24.2190129 240.17392338 -24.22548864 233.38646019 -24.22989178 226.59897399 C-24.23265601 222.35818943 -24.23689378 218.11740713 -24.24139595 213.87662411 C-24.25358938 202.1284226 -24.26388755 190.38022292 -24.26727104 178.63201523 C-24.26749061 177.88018203 -24.26771017 177.12834882 -24.26793639 176.3537328 C-24.26815467 175.60012351 -24.26837295 174.84651423 -24.26859784 174.0700683 C-24.2690413 172.54303133 -24.26948787 171.01599437 -24.26993752 169.48895741 C-24.27015895 168.73149806 -24.27038037 167.97403871 -24.27060851 167.19362605 C-24.27455314 154.93105011 -24.29199656 142.66853372 -24.31529704 130.40598076 C-24.33904229 117.80729039 -24.35147439 105.20862985 -24.35263896 92.60991675 C-24.3535541 85.53989518 -24.3592655 78.46995113 -24.37745857 71.39995098 C-24.39452139 64.74580196 -24.39608845 58.09177374 -24.38731956 51.43760014 C-24.38654982 48.99918887 -24.3908836 46.56076966 -24.40077782 44.12237835 C-24.41352214 40.78504188 -24.40760654 37.44822378 -24.39719582 34.11089039 C-24.40525222 33.15346831 -24.41330863 32.19604623 -24.42160916 31.20961136 C-24.35704014 22.31572273 -23.1555662 13.21465207 -16.77970314 6.56781483 C-12.02656974 2.67406492 -6.1727953 0.01553041 0 0 Z " fill="#081925" transform="translate(69.02970314025879,31.865778923034668)"/>
<path d="M0 0 C1.10270737 -0.00503792 1.10270737 -0.00503792 2.22769165 -0.01017761 C4.66499508 -0.01969907 7.10222989 -0.02163139 9.53955078 -0.02270508 C11.23104888 -0.02591709 12.92254669 -0.02928111 14.61404419 -0.03279114 C18.16327559 -0.03878558 21.71248264 -0.04063074 25.26171875 -0.04003906 C29.81036143 -0.03993748 34.35884788 -0.05358417 38.90745354 -0.07081127 C42.4024426 -0.08192909 45.89739389 -0.08395833 49.39239883 -0.08342934 C51.06933251 -0.08461 52.74626714 -0.08903658 54.42318344 -0.0967617 C56.76921272 -0.10655619 59.11490279 -0.10368567 61.4609375 -0.09765625 C62.5006369 -0.10608551 62.5006369 -0.10608551 63.56134033 -0.11468506 C67.13391543 -0.0913468 69.90538533 0.0260801 72.85986328 2.14526367 C74.32251053 5.20352611 75.15709686 7.07522279 74.23486328 10.39526367 C72.53244831 12.56197364 71.44609591 13.15634612 68.85986328 14.14526367 C66.34246541 14.35002199 63.93431454 14.44926201 61.41674805 14.45166016 C60.67317047 14.45998367 59.9295929 14.46830719 59.16348267 14.47688293 C56.70935814 14.50094716 54.25549947 14.50974982 51.80126953 14.51635742 C50.09260479 14.52532529 48.38394085 14.53444717 46.67527771 14.54371643 C43.09510388 14.5601984 39.5150235 14.5679053 35.93481445 14.57080078 C31.35014423 14.57618901 26.76635324 14.6138899 22.1819315 14.65954494 C18.65342508 14.68930263 15.12513093 14.69652402 11.59650993 14.69752693 C9.90641177 14.70173052 8.21631306 14.71417051 6.52633858 14.73504448 C4.16102672 14.76193866 1.79776034 14.75714156 -0.56762695 14.74462891 C-1.26337326 14.7594632 -1.95911957 14.77429749 -2.6759491 14.7895813 C-6.5169338 14.73179547 -8.07057189 14.20079322 -11.11341858 11.77186584 C-13.14013672 9.14526367 -13.14013672 9.14526367 -13.14013672 6.52026367 C-10.47040638 0.17965412 -6.25773465 -0.00406769 0 0 Z " fill="#071823" transform="translate(105.14013671875,99.854736328125)"/>
<path d="M0 0 C1.14814178 -0.00637985 2.29628357 -0.0127597 3.47921753 -0.01933289 C4.72502594 -0.02044571 5.97083435 -0.02155853 7.25439453 -0.02270508 C9.16697556 -0.02769768 9.16697556 -0.02769768 11.11819458 -0.03279114 C13.82004272 -0.03786231 16.52179033 -0.04063101 19.22363281 -0.04003906 C22.682681 -0.03993753 26.14152352 -0.0535801 29.60052299 -0.07081127 C32.90180583 -0.08461834 36.20308673 -0.08402045 39.50439453 -0.08520508 C40.74615448 -0.09239059 41.98791443 -0.09957611 43.26730347 -0.10697937 C44.99897263 -0.10236443 44.99897263 -0.10236443 46.765625 -0.09765625 C47.78107391 -0.09908127 48.79652283 -0.10050629 49.84274292 -0.10197449 C52.61230991 0.15453492 54.22591269 0.57564084 56.51220703 2.14526367 C57.76220703 5.27026367 57.76220703 5.27026367 58.51220703 8.14526367 C54.66353879 12.31465426 52.6296334 13.96948231 47.02151489 14.28570557 C45.62302811 14.29594757 45.62302811 14.29594757 44.19628906 14.30639648 C43.13483673 14.31600403 42.0733844 14.32561157 40.97976685 14.33551025 C39.83805023 14.33976013 38.69633362 14.34401001 37.52001953 14.34838867 C35.75197464 14.35693878 35.75197464 14.35693878 33.94821167 14.36566162 C31.4550669 14.37510543 28.96190968 14.38164314 26.46875 14.38549805 C22.65879533 14.39520865 18.84937899 14.42624085 15.03955078 14.45776367 C12.6163769 14.46429346 10.19319916 14.46954403 7.77001953 14.47338867 C6.63235138 14.48573547 5.49468323 14.49808228 4.32254028 14.51080322 C-5.86452077 14.48217088 -5.86452077 14.48217088 -10.48779297 11.14526367 C-11.61279297 8.20776367 -11.61279297 8.20776367 -11.48779297 5.14526367 C-8.01047556 0.70868629 -5.45228779 0.02049895 0 0 Z " fill="#081824" transform="translate(103.48779296875,142.854736328125)"/>
<path d="M0 0 C1.12796997 -0.00630432 2.25593994 -0.01260864 3.41809082 -0.019104 C4.63170288 -0.01505554 5.84531494 -0.01100708 7.09570312 -0.00683594 C8.97074524 -0.00970612 8.97074524 -0.00970612 10.88366699 -0.01263428 C13.5265895 -0.01399529 16.16914208 -0.01130977 18.81201172 -0.00195312 C22.19479911 0.00944118 25.57726911 0.00287811 28.96004486 -0.00909805 C32.19277558 -0.01807426 35.42546826 -0.01178437 38.65820312 -0.00683594 C39.87181519 -0.0108844 41.08542725 -0.01493286 42.33581543 -0.019104 C44.02777039 -0.00964752 44.02777039 -0.00964752 45.75390625 0 C46.74555786 0.00159119 47.73720947 0.00318237 48.75891113 0.00482178 C51.493284 0.27007392 53.09853575 0.74237164 55.37695312 2.25878906 C56.87695312 5.07128906 56.87695312 5.07128906 57.37695312 8.25878906 C55.32853677 11.67281632 54.17694986 12.99212348 50.37695312 14.25878906 C48.60897896 14.35667227 46.83756216 14.39698768 45.06689453 14.40405273 C43.43973007 14.41362251 43.43973007 14.41362251 41.7796936 14.42338562 C40.60780487 14.42449844 39.43591614 14.42561127 38.22851562 14.42675781 C36.42149673 14.43175041 36.42149673 14.43175041 34.57797241 14.43684387 C32.02757143 14.44191046 29.47716382 14.44425228 26.92675781 14.4440918 C23.02462837 14.44627637 19.12278245 14.46443 15.22070312 14.48339844 C12.74414159 14.48633278 10.26757872 14.4883173 7.79101562 14.48925781 C6.62317535 14.49644333 5.45533508 14.50362885 4.25210571 14.5110321 C2.61548477 14.50641716 2.61548477 14.50641716 0.94580078 14.50170898 C-0.48957535 14.50384651 -0.48957535 14.50384651 -1.95394897 14.50602722 C-4.89216338 14.23386084 -7.00617887 13.61812907 -9.62304688 12.25878906 C-11.15765063 9.18958156 -11.92989086 7.36342741 -10.99804688 4.00878906 C-8.03562245 0.2384307 -4.57769343 0.00734529 0 0 Z " fill="#081823" transform="translate(102.623046875,186.7412109375)"/>
<path d="M0 0 C1.53684448 -0.00934319 1.53684448 -0.00934319 3.10473633 -0.01887512 C4.20068115 -0.00966537 5.29662598 -0.00045563 6.42578125 0.0090332 C7.56104248 0.0085347 8.69630371 0.00803619 9.8659668 0.00752258 C12.26320142 0.00986025 14.66043863 0.0195706 17.05761719 0.03613281 C20.72483289 0.05972793 24.39132139 0.05669065 28.05859375 0.05004883 C30.38932725 0.05562575 32.72005768 0.06273572 35.05078125 0.0715332 C36.14672607 0.0706218 37.2426709 0.06971039 38.37182617 0.06877136 C39.39638916 0.07830338 40.42095215 0.08783539 41.4765625 0.09765625 C42.37415283 0.10226364 43.27174316 0.10687103 44.1965332 0.11161804 C47.06309737 0.40562948 49.17346615 1.06253172 51.73828125 2.37231445 C53.30078125 5.18481445 53.30078125 5.18481445 53.73828125 8.37231445 C51.68986489 11.78634171 50.53827798 13.10564887 46.73828125 14.37231445 C45.03193968 14.48457757 43.32167986 14.54127857 41.61181641 14.56518555 C40.5670816 14.58124847 39.5223468 14.5973114 38.44595337 14.61386108 C33.67816861 14.65833788 28.9105217 14.69935749 24.14257812 14.72241211 C21.62653364 14.7389907 19.11053661 14.76630527 16.59472656 14.80444336 C12.96785034 14.85913661 9.34207649 14.88107367 5.71484375 14.89575195 C4.02870468 14.92975601 4.02870468 14.92975601 2.3085022 14.96444702 C-5.46999257 14.94335457 -5.46999257 14.94335457 -9.50244141 12.03491211 C-11.26171875 9.37231445 -11.26171875 9.37231445 -11.38671875 6.24731445 C-9.35157386 1.04638863 -5.26720476 -0.00369357 0 0 Z " fill="#081824" transform="translate(103.26171875,229.627685546875)"/>
<path d="M0 0 C2.9375 2.625 2.9375 2.625 5 6 C5.07503592 9.75179604 4.49539331 11.36794647 2.1875 14.3125 C-1.18574766 16.91471963 -1.18574766 16.91471963 -4 17 C-8.06644623 15.21473092 -10.35834467 13.1524223 -12 9 C-11.38673345 5.59296364 -10.61394681 3.65780015 -8.25 1.125 C-5.15330117 -0.42334942 -3.42032838 -0.62822358 0 0 Z " fill="#081927" transform="translate(265,129)"/>
<path d="M0 0 C2 3 2 3 1.625 6.1875 C1.41875 7.115625 1.2125 8.04375 1 9 C-0.98 9.66 -2.96 10.32 -5 11 C-6.65 9.35 -8.3 7.7 -10 6 C-9.39816251 3.97954558 -8.72693904 1.97888961 -8 0 C-5.06791253 -1.46604374 -3.11702298 -0.77925574 0 0 Z " fill="#081A27" transform="translate(221,169)"/>
<path d="M0 0 C2.4375 0.6875 2.4375 0.6875 5 2 C6 4.4375 6 4.4375 6 7 C4.9375 8.875 4.9375 8.875 3 10 C-0.1875 9.6875 -0.1875 9.6875 -3 9 C-3.75 6.75 -3.75 6.75 -4 4 C-2.0625 1.6875 -2.0625 1.6875 0 0 Z " fill="#071826" transform="translate(305,171)"/>
</svg>
